<?xml version="1.0" encoding="UTF-8" standalone="no"?>
<svg
   id="Layer_1"
   data-name="Layer 1"
   width="195.57001"
   height="96.739998"
   viewBox="0 0 195.57 96.74"
   version="1.1"
   sodipodi:docname="abxy.svg"
   inkscape:export-filename="abxy.png"
   inkscape:export-xdpi="96"
   inkscape:export-ydpi="96"
   xmlns:inkscape="http://www.inkscape.org/namespaces/inkscape"
   xmlns:sodipodi="http://sodipodi.sourceforge.net/DTD/sodipodi-0.dtd"
   xmlns="http://www.w3.org/2000/svg"
   xmlns:svg="http://www.w3.org/2000/svg">
  <sodipodi:namedview
     id="namedview19"
     pagecolor="#ffffff"
     bordercolor="#000000"
     borderopacity="0.25"
     inkscape:showpageshadow="2"
     inkscape:pageopacity="0.0"
     inkscape:pagecheckerboard="0"
     inkscape:deskcolor="#d1d1d1" />
  <defs
     id="defs1">
    <style
       id="style1">
      .cls-1 {
        fill: #141414;
      }

      .cls-2 {
        isolation: isolate;
      }

      .cls-3 {
        fill: #39b54a;
      }

      .cls-4 {
        fill: #c1272d;
      }

      .cls-5 {
        fill: #fcee21;
      }

      .cls-6 {
        fill: #0071bc;
      }

      .cls-7 {
        fill: #fff;
      }

      .cls-8 {
        fill: #c64ab5;
      }

      .cls-9 {
        fill: #3ed8d2;
      }

      .cls-10 {
        fill: #0311de;
      }

      .cls-11 {
        fill: #ff8e43;
      }
    </style>
  </defs>
  <g
     id="g10">
    <g
       id="g3">
      <g
         id="A">
        <path
           class="cls-1"
           d="M 23.69,0 A 23.68,23.68 0 1 1 0,23.68 23.69,23.69 0 0 1 23.69,0 Z"
           id="path1" />
      </g>
      <g
         class="cls-2"
         id="g2"
         style="fill:#a50003;fill-opacity:1">
        <path
           class="cls-3"
           d="M 32.45,38.83 29.67,31.17 H 17.54 L 14.9,38.83 H 9.42 L 20.88,8.53 h 5.59 L 38,38.83 Z M 23.66,13.08 h -0.13 a 10.82,10.82 0 0 1 -0.45,2.17 l -4.14,11.68 h 9.3 L 24.07,15.25 a 11.49,11.49 0 0 1 -0.41,-2.17 z"
           id="path2"
           style="fill:#a50003;fill-opacity:1" />
      </g>
    </g>
    <g
       id="g5">
      <g
         id="B">
        <path
           class="cls-1"
           d="M 73.08,0 A 23.69,23.69 0 1 1 49.39,23.69 23.7,23.7 0 0 1 73.08,0 Z"
           id="path3" />
      </g>
      <g
         class="cls-2"
         id="g4"
         style="fill:#a50003;fill-opacity:1">
        <path
           class="cls-4"
           d="m 83.29,30 a 7.94,7.94 0 0 1 -2.93,6.39 11.38,11.38 0 0 1 -7.56,2.43 H 62.89 V 8.53 h 9.57 a 11.41,11.41 0 0 1 6.87,1.88 6.05,6.05 0 0 1 2.52,5.09 6.76,6.76 0 0 1 -1.5,4.35 7.92,7.92 0 0 1 -4,2.67 v 0.09 a 8.15,8.15 0 0 1 5.11,2.39 7.22,7.22 0 0 1 1.83,5 z M 76.52,16.47 a 3.3,3.3 0 0 0 -1.33,-2.79 6.79,6.79 0 0 0 -4,-1 h -3.26 v 8.39 h 3.23 a 5.93,5.93 0 0 0 4,-1.2 4.29,4.29 0 0 0 1.36,-3.4 z M 78,29.87 a 4.11,4.11 0 0 0 -1.55,-3.41 7.58,7.58 0 0 0 -4.68,-1.2 h -3.84 v 9.41 h 4.24 A 6.36,6.36 0 0 0 76.41,33.36 4.26,4.26 0 0 0 78,29.87 Z"
           id="path4"
           style="fill:#a50003;fill-opacity:1" />
      </g>
    </g>
    <g
       id="g7">
      <g
         id="Y">
        <path
           class="cls-1"
           d="M 171.87,0 A 23.69,23.69 0 1 1 148.18,23.69 23.69,23.69 0 0 1 171.87,0 Z"
           id="path5" />
      </g>
      <g
         class="cls-2"
         id="g6">
        <path
           class="cls-5"
           d="m 174.27,27.85 v 11 h -5 V 28 L 159.42,8.53 h 5.72 l 6.1,12.65 a 6.27,6.27 0 0 1 0.44,1.12 c 0.1,0.34 0.17,0.61 0.25,0.83 v 0 a 8.28,8.28 0 0 1 0.69,-1.91 L 179,8.53 h 5.31 z"
           id="path6"
           style="fill:#a50003;fill-opacity:1" />
      </g>
    </g>
    <g
       id="g9">
      <g
         id="X">
        <path
           class="cls-1"
           d="M 122.47,0 A 23.69,23.69 0 1 1 98.79,23.69 23.7,23.7 0 0 1 122.47,0 Z"
           id="path7" />
      </g>
      <g
         class="cls-2"
         id="g8"
         style="fill:#a50003;fill-opacity:1">
        <path
           class="cls-6"
           d="m 129.59,38.83 -6.41,-11 a 5.14,5.14 0 0 1 -0.3,-0.76 5.44,5.44 0 0 0 -0.22,-0.76 h -0.09 c -0.11,0.27 -0.19,0.52 -0.27,0.77 a 4.94,4.94 0 0 1 -0.33,0.75 l -6.53,11 h -6.12 L 119.46,23.64 110.2,8.53 h 6.19 l 5.4,10 a 10.25,10.25 0 0 1 1,2.27 h 0.08 c 0.3,-0.79 0.53,-1.31 0.65,-1.56 0.12,-0.25 2.21,-3.8 6.27,-10.66 h 5.68 l -9.46,15 9.58,15.28 z"
           id="path8"
           style="fill:#a50003;fill-opacity:1" />
      </g>
    </g>
  </g>
  <g
     id="g19">
    <g
       id="g12">
      <g
         id="A-2"
         data-name="A">
        <path
           class="cls-7"
           d="M 23.69,49.38 A 23.68,23.68 0 1 1 0,73.06 23.68,23.68 0 0 1 23.69,49.38 Z"
           id="path10" />
      </g>
      <g
         class="cls-2"
         id="g11"
         style="fill:#230000;fill-opacity:1">
        <path
           class="cls-8"
           d="M 32.45,88.21 29.67,80.55 H 17.54 L 14.9,88.21 H 9.42 L 20.88,57.9 h 5.59 L 38,88.21 Z M 23.66,62.46 h -0.13 a 11.13,11.13 0 0 1 -0.45,2.17 l -4.14,11.68 h 9.3 L 24.07,64.63 a 11.67,11.67 0 0 1 -0.41,-2.17 z"
           id="path11"
           style="fill:#230000;fill-opacity:1" />
      </g>
    </g>
    <g
       id="g14">
      <g
         id="B-2"
         data-name="B">
        <path
           class="cls-7"
           d="M 73.08,49.37 A 23.69,23.69 0 1 1 49.39,73.06 23.7,23.7 0 0 1 73.08,49.37 Z"
           id="path12" />
      </g>
      <g
         class="cls-2"
         id="g13"
         style="fill:#230000;fill-opacity:1">
        <path
           class="cls-9"
           d="m 83.29,79.38 a 7.92,7.92 0 0 1 -2.93,6.39 11.39,11.39 0 0 1 -7.56,2.44 H 62.89 V 57.9 h 9.57 a 11.34,11.34 0 0 1 6.87,1.89 6,6 0 0 1 2.52,5.09 6.75,6.75 0 0 1 -1.5,4.34 7.86,7.86 0 0 1 -4,2.67 V 72 a 8,8 0 0 1 5.07,2.37 7.17,7.17 0 0 1 1.87,5.01 z M 76.52,65.84 a 3.3,3.3 0 0 0 -1.33,-2.79 6.8,6.8 0 0 0 -4,-1 h -3.26 v 8.38 h 3.23 a 5.93,5.93 0 0 0 4,-1.2 4.27,4.27 0 0 0 1.36,-3.39 z M 78,79.25 a 4.1,4.1 0 0 0 -1.55,-3.41 7.52,7.52 0 0 0 -4.68,-1.21 h -3.84 v 9.42 h 4.24 A 6.36,6.36 0 0 0 76.41,82.74 4.28,4.28 0 0 0 78,79.25 Z"
           id="path13"
           style="fill:#230000;fill-opacity:1" />
      </g>
    </g>
    <g
       id="g16">
      <g
         id="Y-2"
         data-name="Y">
        <path
           class="cls-7"
           d="M 171.87,49.37 A 23.69,23.69 0 1 1 148.18,73.06 23.7,23.7 0 0 1 171.87,49.37 Z"
           id="path14" />
      </g>
      <g
         class="cls-2"
         id="g15"
         style="fill:#230000;fill-opacity:1">
        <path
           class="cls-10"
           d="m 174.27,77.22 v 11 h -5 V 77.34 l -9.85,-19.43 h 5.72 l 6.1,12.64 a 6.27,6.27 0 0 1 0.44,1.12 c 0.1,0.34 0.17,0.61 0.25,0.83 v 0 a 8.2,8.2 0 0 1 0.69,-1.9 L 179,57.91 h 5.31 z"
           id="path15"
           style="fill:#230000;fill-opacity:1" />
      </g>
    </g>
    <g
       id="g18">
      <g
         id="X-2"
         data-name="X">
        <path
           class="cls-7"
           d="M 122.47,49.37 A 23.69,23.69 0 1 1 98.79,73.06 23.7,23.7 0 0 1 122.47,49.37 Z"
           id="path16" />
      </g>
      <g
         class="cls-2"
         id="g17"
         style="fill:#230000;fill-opacity:1;stroke:none;stroke-opacity:1">
        <path
           class="cls-11"
           d="m 129.59,88.21 -6.41,-11 a 5.22,5.22 0 0 1 -0.3,-0.77 5.86,5.86 0 0 0 -0.22,-0.76 h -0.09 c -0.11,0.28 -0.19,0.52 -0.27,0.78 a 4.94,4.94 0 0 1 -0.33,0.75 l -6.53,11 h -6.12 L 119.46,73 110.2,57.9 h 6.18 l 5.41,10 a 10.7,10.7 0 0 1 1,2.26 h 0.08 c 0.3,-0.79 0.53,-1.31 0.65,-1.56 0.12,-0.25 2.21,-3.79 6.27,-10.66 h 5.68 l -9.46,15 9.58,15.29 z"
           id="path17"
           style="fill:#230000;fill-opacity:1;stroke:none;stroke-opacity:1" />
      </g>
    </g>
  </g>
</svg>
